<?xml version="1.0" ?><!DOCTYPE svg  PUBLIC '-//W3C//DTD SVG 1.1//EN'  'http://www.w3.org/Graphics/SVG/1.1/DTD/svg11.dtd'><svg height="100%" style="fill-rule:evenodd;clip-rule:evenodd;stroke-linejoin:round;stroke-miterlimit:2;" version="1.1" viewBox="0 0 32 32" width="100%" xml:space="preserve" xmlns="http://www.w3.org/2000/svg" xmlns:serif="http://www.serif.com/" xmlns:xlink="http://www.w3.org/1999/xlink"><path d="M26.5,11c-0,-1.933 -1.567,-3.5 -3.5,-3.5c-3.776,0 -10.224,0 -14,0c-1.933,0 -3.5,1.567 -3.5,3.5c0,3.329 0,8.671 0,12c0,1.933 1.567,3.5 3.5,3.5c3.776,0 10.224,0 14,0c1.933,-0 3.5,-1.567 3.5,-3.5l-0,-12Zm-1,-0c-0,-1.381 -1.119,-2.5 -2.5,-2.5c-3.776,0 -10.224,0 -14,0c-1.381,0 -2.5,1.119 -2.5,2.5c0,3.329 0,8.671 -0,12c0,1.381 1.119,2.5 2.5,2.5c3.776,0 10.224,0 14,0c1.381,-0 2.5,-1.119 2.5,-2.5l0,-12Z"/><path d="M10.5,6l0,4c0,0.276 0.224,0.5 0.5,0.5c0.276,-0 0.5,-0.224 0.5,-0.5l0,-4c0,-0.276 -0.224,-0.5 -0.5,-0.5c-0.276,-0 -0.5,0.224 -0.5,0.5Z"/><path d="M6,14.5l20,0l0,-1l-20,0l0,1Z"/><path d="M20.5,6l0,4c0,0.276 0.224,0.5 0.5,0.5c0.276,-0 0.5,-0.224 0.5,-0.5l0,-4c0,-0.276 -0.224,-0.5 -0.5,-0.5c-0.276,-0 -0.5,0.224 -0.5,0.5Z"/><path d="M10.5,16.5c-0.552,0 -1,0.448 -1,1c-0,0.552 0.448,1 1,1c0.552,0 1,-0.448 1,-1c0,-0.552 -0.448,-1 -1,-1Zm-0,1c0,0 0,-0 -0,0Z"/><path d="M16,16.5c-0.552,0 -1,0.448 -1,1c0,0.552 0.448,1 1,1c0.552,0 1,-0.448 1,-1c-0,-0.552 -0.448,-1 -1,-1Zm-0,1c0,0 -0,-0 -0,0Z"/><path d="M21.5,16.5c-0.552,0 -1,0.448 -1,1c0,0.552 0.448,1 1,1c0.552,0 1,-0.448 1,-1c-0,-0.552 -0.448,-1 -1,-1Zm-0,1c-0,0 -0,-0 -0,0Z"/><path d="M21.5,21.422c-0.552,0 -1,0.448 -1,1c0,0.552 0.448,1 1,1c0.552,0 1,-0.448 1,-1c-0,-0.552 -0.448,-1 -1,-1Zm-0,1c0,0 0,0 -0,0Z"/><path d="M16,21.422c-0.552,0 -1,0.448 -1,1c0,0.552 0.448,1 1,1c0.552,0 1,-0.448 1,-1c-0,-0.552 -0.448,-1 -1,-1Zm0,1c0,0 0,0 0,0Z"/><path d="M10.5,21.422c-0.552,0 -1,0.448 -1,1c0,0.552 0.448,1 1,1c0.552,0 1,-0.448 1,-1c-0,-0.552 -0.448,-1 -1,-1Zm-0,1c0,0 0,0 -0,0Z"/></svg>