<?xml version="1.0" ?><!DOCTYPE svg  PUBLIC '-//W3C//DTD SVG 1.1//EN'  'http://www.w3.org/Graphics/SVG/1.1/DTD/svg11.dtd'><svg height="100%" style="fill-rule:evenodd;clip-rule:evenodd;stroke-linejoin:round;stroke-miterlimit:2;" version="1.1" viewBox="0 0 32 32" width="100%" xml:space="preserve" xmlns="http://www.w3.org/2000/svg" xmlns:serif="http://www.serif.com/" xmlns:xlink="http://www.w3.org/1999/xlink"><path d="M16,10.104c-1.834,-0 -3.323,1.489 -3.323,3.323c-0,1.834 1.489,3.323 3.323,3.323c1.834,-0 3.323,-1.489 3.323,-3.323c0,-1.834 -1.489,-3.323 -3.323,-3.323Zm0,1c1.282,-0 2.323,1.041 2.323,2.323c0,1.282 -1.041,2.323 -2.323,2.323c-1.282,-0 -2.323,-1.041 -2.323,-2.323c-0,-1.282 1.041,-2.323 2.323,-2.323Z"/><path d="M16,5.5c-4.691,-0 -8.5,3.809 -8.5,8.5c0,3.082 1.32,5.78 2.916,7.904c2.362,3.143 5.316,5.018 5.316,5.018c0.163,0.104 0.373,0.104 0.536,-0c0,-0 2.954,-1.875 5.316,-5.018c1.596,-2.124 2.916,-4.822 2.916,-7.904c-0,-4.691 -3.809,-8.5 -8.5,-8.5Zm-0,20.397c0.754,-0.523 2.955,-2.159 4.784,-4.594c1.476,-1.964 2.716,-4.453 2.716,-7.303c-0,-4.139 -3.361,-7.5 -7.5,-7.5c-4.139,-0 -7.5,3.361 -7.5,7.5c0,2.85 1.24,5.339 2.716,7.303c1.829,2.435 4.03,4.071 4.784,4.594Z"/></svg>