<?xml version="1.0" ?><!DOCTYPE svg  PUBLIC '-//W3C//DTD SVG 1.1//EN'  'http://www.w3.org/Graphics/SVG/1.1/DTD/svg11.dtd'><svg height="100%" style="fill-rule:evenodd;clip-rule:evenodd;stroke-linejoin:round;stroke-miterlimit:2;" version="1.1" viewBox="0 0 32 32" width="100%" xml:space="preserve" xmlns="http://www.w3.org/2000/svg" xmlns:serif="http://www.serif.com/" xmlns:xlink="http://www.w3.org/1999/xlink"><path d="M26.5,14.778c-0,-0.663 -0.263,-1.299 -0.732,-1.768c-0.469,-0.469 -1.105,-0.732 -1.768,-0.732c-3.832,-0 -12.168,-0 -16,-0c-0.663,-0 -1.299,0.263 -1.768,0.732c-0.469,0.469 -0.732,1.105 -0.732,1.768c0,2.661 0,7.339 0,10c0,0.663 0.263,1.299 0.732,1.768c0.469,0.469 1.105,0.732 1.768,0.732c3.832,-0 12.168,-0 16,-0c0.663,-0 1.299,-0.263 1.768,-0.732c0.469,-0.469 0.732,-1.105 0.732,-1.768l-0,-10Zm-1,-0c-0,-0.398 -0.158,-0.78 -0.439,-1.061c-0.282,-0.281 -0.663,-0.439 -1.061,-0.439c-3.832,-0 -12.168,-0 -16,-0c-0.398,-0 -0.779,0.158 -1.061,0.439c-0.281,0.281 -0.439,0.663 -0.439,1.061c0,2.661 0,7.339 0,10c0,0.398 0.158,0.779 0.439,1.061c0.282,0.281 0.663,0.439 1.061,0.439c3.832,-0 12.168,-0 16,-0c0.398,-0 0.779,-0.158 1.061,-0.439c0.281,-0.282 0.439,-0.663 0.439,-1.061l-0,-10Z"/><path d="M16,17.278c-1.38,-0 -2.5,1.12 -2.5,2.5c-0,1.38 1.12,2.5 2.5,2.5c1.38,-0 2.5,-1.12 2.5,-2.5c0,-1.38 -1.12,-2.5 -2.5,-2.5Zm-0,1c0.828,-0 1.5,0.672 1.5,1.5c0,0.828 -0.672,1.5 -1.5,1.5c-0.828,-0 -1.5,-0.672 -1.5,-1.5c-0,-0.828 0.672,-1.5 1.5,-1.5Z"/><path d="M23.5,12.778l0,-0.778c0,-1.989 -0.79,-3.897 -2.197,-5.303c-1.406,-1.407 -3.314,-2.197 -5.303,-2.197l-0,0.5l-0,-0.5c-1.989,0 -3.897,0.79 -5.303,2.197c-1.407,1.406 -2.197,3.314 -2.197,5.303l-0,0.778l1,-0l-0,-0.778c-0,-1.724 0.685,-3.377 1.904,-4.596c1.219,-1.219 2.872,-1.904 4.596,-1.904l-0,-0.5l-0,0.5c1.724,-0 3.377,0.685 4.596,1.904c1.219,1.219 1.904,2.872 1.904,4.596l0,0.778l1,-0Z"/></svg>