<?xml version="1.0" encoding="iso-8859-1"?>
<!-- Generator: Adobe Illustrator 19.0.0, SVG Export Plug-In . SVG Version: 6.00 Build 0)  -->
<svg version="1.1" id="Capa_1" xmlns="http://www.w3.org/2000/svg" xmlns:xlink="http://www.w3.org/1999/xlink" x="0px" y="0px"
	 viewBox="0 0 323.2 323.2" style="enable-background:new 0 0 323.2 323.2;" xml:space="preserve">
<g>
	<g>
		<path d="M320.8,2.4c-1.6-1.6-4-2.4-6.4-2.4L200,16c-1.6,0-3.2,0.8-4.8,2.4L125.6,88L76,81.6c-2.4,0-4.8,0.8-6.4,2.4l-64,64
			c-1.6,1.6-2.4,3.2-2.4,5.6s0.8,4,2.4,5.6l48.8,48c1.6,1.6,4,2.4,5.6,2.4c1.6,0,4-0.8,5.6-2.4l25.6-25.6l49.6,49.6l-25.6,25.6
			c-3.2,3.2-3.2,8,0,11.2l48.8,48.8c1.6,1.6,3.2,2.4,5.6,2.4c2.4,0,4-0.8,5.6-2.4l64-64c1.6-1.6,2.4-4,2.4-6.4l-6.4-48.8l69.6-69.6
			c1.6-1.6,2.4-3.2,2.4-4.8l16-114.4C323.2,6.4,322.4,4,320.8,2.4z M60,191.2l-37.6-37.6l56-56l32.8,4.8l-32,32
			c-9.6,9.6-9.6,26.4,0,36l0.8,0.8L60,191.2z M169.6,300L132,262.4l20-20l0.8,0.8c4.8,4.8,11.2,7.2,18.4,7.2s13.6-2.4,18.4-7.2
			l31.2-31.2l4,32.8L169.6,300z M292,119.2L177.6,232.8c-4,3.2-9.6,3.2-13.6,0l-73.6-73.6c-4-4-4-9.6,0-13.6L204.8,32l56.8-8
			L300,62.4L292,119.2z M302.4,42.4l-21.6-21.6l24.8-3.2L302.4,42.4z"/>
	</g>
</g>
<g>
	<g>
		<path d="M88.8,235.2c-3.2-3.2-8-3.2-11.2,0l-55.2,54.4c-3.2,3.2-3.2,8,0,11.2c1.6,1.6,4,2.4,5.6,2.4c1.6,0,4-0.8,5.6-2.4L88,246.4
			C91.2,243.2,91.2,238.4,88.8,235.2z"/>
	</g>
</g>
<g>
	<g>
		<path d="M43.2,219.2c-3.2-3.2-8-3.2-11.2,0L2.4,248.8c-3.2,3.2-3.2,8,0,11.2c1.6,1.6,4,2.4,5.6,2.4c2.4,0,4-0.8,5.6-2.4l29.6-29.6
			C46.4,227.2,46.4,222.4,43.2,219.2z"/>
	</g>
</g>
<g>
	<g>
		<path d="M104,280c-3.2-3.2-8-3.2-11.2,0l-29.6,29.6c-3.2,3.2-3.2,8,0,11.2c1.6,1.6,3.2,2.4,5.6,2.4c2.4,0,4-0.8,5.6-2.4l29.6-29.6
			C107.2,288,107.2,283.2,104,280z"/>
	</g>
</g>
<g>
	<g>
		<path d="M229.6,93.6c-14.4-14.4-37.6-14.4-52,0c-7.2,7.2-10.4,16-10.4,25.6c0,9.6,4,19.2,10.4,25.6c8,7.2,16.8,11.2,26.4,11.2
			c9.6,0,19.2-4,25.6-10.4C244,131.2,244,108,229.6,93.6z M218.4,134.4c-8,8-21.6,8-29.6,0c-4-4-6.4-8.8-6.4-14.4
			c0-5.6,3.2-12,7.2-15.2c4-4,9.6-6.4,14.4-6.4s10.4,2.4,14.4,6.4C226.4,112.8,226.4,126.4,218.4,134.4z"/>
	</g>
</g>
<g>
</g>
<g>
</g>
<g>
</g>
<g>
</g>
<g>
</g>
<g>
</g>
<g>
</g>
<g>
</g>
<g>
</g>
<g>
</g>
<g>
</g>
<g>
</g>
<g>
</g>
<g>
</g>
<g>
</g>
</svg>
